<svg width="65" height="65" viewBox="0 0 65 65" fill="none" xmlns="http://www.w3.org/2000/svg">
<rect width="65" height="65" rx="25" fill="#8E9775"/>
<path d="M32.4536 20.2872L32.4536 20.2872L35.6117 26.7394C35.6117 26.7394 35.6117 26.7394 35.6117 26.7394C35.9752 27.4822 36.6803 28.0008 37.5003 28.1208C37.5004 28.1208 37.5005 28.1208 37.5006 28.1208L44.5622 29.1555C44.9703 29.2154 45.1556 29.7378 44.8421 30.0459L44.8421 30.0459L39.7321 35.0682L39.7319 35.0685C39.1427 35.6479 38.8749 36.4808 39.0139 37.2953L40.2199 44.3866L40.2199 44.3867C40.2952 44.829 39.8427 45.1273 39.4859 44.9383L33.1701 41.5904L33.1698 41.5902C32.4378 41.2025 31.5622 41.2025 30.8302 41.5902L30.8299 41.5904L24.5138 44.9384L24.5137 44.9385C24.1578 45.1272 23.7046 44.8298 23.7801 44.3867L23.7801 44.3866L24.9861 37.2953C24.9861 37.2951 24.9862 37.295 24.9862 37.2948C25.1249 36.4805 24.8572 35.6478 24.2681 35.0685L24.2679 35.0682L19.1581 30.0461C19.158 30.046 19.158 30.046 19.1579 30.0459C18.8437 29.7367 19.0306 29.215 19.4374 29.1556L19.4377 29.1555L26.4994 28.1208C26.4995 28.1208 26.4996 28.1208 26.4997 28.1208C27.3197 28.0008 28.0248 27.4822 28.3883 26.7394C28.3883 26.7394 28.3883 26.7394 28.3883 26.7394L31.5464 20.2872L31.5466 20.2868C31.7333 19.9048 32.266 19.9039 32.4536 20.2872Z" stroke="#FAF2DA" stroke-width="2"/>
</svg>
