<svg width="65" height="65" viewBox="0 0 65 65" fill="none" xmlns="http://www.w3.org/2000/svg">
<rect width="65" height="65" rx="25" fill="#8E9775"/>
<path d="M20.797 12.9831L20.7971 12.9831L23.1656 17.7625C23.1656 17.7625 23.1656 17.7625 23.1656 17.7625C23.4476 18.3316 23.9919 18.7243 24.6196 18.815L29.9158 19.5814C29.9158 19.5815 29.9158 19.5815 29.9158 19.5815C30.1913 19.6214 30.2911 19.951 30.1001 20.1364L30.1001 20.1364L26.2676 23.8567L26.2674 23.8568C25.8124 24.2987 25.6033 24.9369 25.7113 25.5633C25.7114 25.5633 25.7114 25.5633 25.7114 25.5633C25.7114 25.5635 25.7114 25.5636 25.7114 25.5637L26.6159 30.8164L26.6159 30.8166C26.6606 31.0755 26.384 31.2899 26.1342 31.1593L21.3974 28.6794L21.3971 28.6792C20.8354 28.3854 20.1646 28.3854 19.6029 28.6792L19.6026 28.6794L14.8656 31.1594L14.8655 31.1594C14.6164 31.2899 14.3393 31.0761 14.3841 30.8166L14.3841 30.8164L15.2886 25.5637C15.3968 24.9372 15.1877 24.2988 14.7326 23.8568L14.7324 23.8567L10.9001 20.1366C10.7083 19.9503 10.8094 19.6211 11.0839 19.5815L11.0842 19.5815L16.3804 18.815C17.0081 18.7243 17.5524 18.3316 17.8344 17.7625C17.8344 17.7625 17.8344 17.7625 17.8344 17.7625L20.2029 12.9831L20.2031 12.9828C20.3236 12.7394 20.6759 12.7387 20.797 12.9831Z" stroke="#FAF2DA" stroke-width="1.6"/>
<path d="M45.797 12.9831L45.7971 12.9831L48.1656 17.7625C48.1656 17.7625 48.1656 17.7625 48.1656 17.7625C48.4476 18.3316 48.9919 18.7243 49.6196 18.815L54.9158 19.5814C54.9158 19.5815 54.9158 19.5815 54.9158 19.5815C55.1913 19.6214 55.2911 19.951 55.1001 20.1364L55.1001 20.1364L51.2676 23.8567L51.2674 23.8568C50.8124 24.2987 50.6033 24.9369 50.7113 25.5633C50.7114 25.5633 50.7114 25.5633 50.7114 25.5633C50.7114 25.5635 50.7114 25.5636 50.7114 25.5637L51.6159 30.8164L51.6159 30.8166C51.6606 31.0755 51.384 31.2899 51.1342 31.1593L46.3974 28.6794L46.3971 28.6792C45.8354 28.3854 45.1646 28.3854 44.6029 28.6792L44.6026 28.6794L39.8656 31.1594L39.8655 31.1594C39.6164 31.2899 39.3393 31.0761 39.3841 30.8166L39.3841 30.8164L40.2886 25.5637C40.3968 24.9372 40.1877 24.2988 39.7326 23.8568L39.7324 23.8567L35.9001 20.1366C35.7083 19.9503 35.8094 19.6211 36.0839 19.5815L36.0842 19.5815L41.3804 18.815C42.0081 18.7243 42.5524 18.3316 42.8344 17.7625C42.8344 17.7625 42.8344 17.7625 42.8344 17.7625L45.2029 12.9831L45.2031 12.9828C45.3236 12.7394 45.6759 12.7387 45.797 12.9831Z" stroke="#FAF2DA" stroke-width="1.6"/>
<path d="M32.797 32.9831L32.7971 32.9831L35.1656 37.7625C35.1656 37.7625 35.1656 37.7625 35.1656 37.7625C35.4476 38.3316 35.9919 38.7243 36.6196 38.815L41.9158 39.5814C41.9158 39.5815 41.9158 39.5815 41.9158 39.5815C42.1913 39.6214 42.2911 39.951 42.1001 40.1364L42.1001 40.1364L38.2676 43.8567L38.2674 43.8568C37.8124 44.2987 37.6033 44.9369 37.7113 45.5633C37.7114 45.5633 37.7114 45.5633 37.7114 45.5633C37.7114 45.5635 37.7114 45.5636 37.7114 45.5637L38.6159 50.8164L38.6159 50.8166C38.6606 51.0755 38.384 51.2899 38.1342 51.1593L33.3974 48.6794L33.3971 48.6792C32.8354 48.3854 32.1646 48.3854 31.6029 48.6792L31.6026 48.6794L26.8656 51.1594L26.8655 51.1594C26.6164 51.2899 26.3393 51.0761 26.3841 50.8166L26.3841 50.8164L27.2886 45.5637C27.3968 44.9372 27.1877 44.2988 26.7326 43.8568L26.7324 43.8567L22.9001 40.1366C22.7083 39.9503 22.8094 39.6211 23.0839 39.5815L23.0842 39.5815L28.3804 38.815C29.0081 38.7243 29.5524 38.3316 29.8344 37.7625C29.8344 37.7625 29.8344 37.7625 29.8344 37.7625L32.2029 32.9831L32.2031 32.9828C32.3236 32.7394 32.6759 32.7387 32.797 32.9831Z" stroke="#FAF2DA" stroke-width="1.6"/>
</svg>
