<svg width="65" height="65" viewBox="0 0 65 65" fill="none" xmlns="http://www.w3.org/2000/svg">
<rect width="65" height="65" rx="25" fill="#8E9775"/>
<path d="M33.8965 19.7268L33.8965 19.7268L33.8914 19.7199C33.5641 19.2749 33.0607 19 32.5 19C31.9393 19 31.4359 19.2749 31.1086 19.7199L31.1053 19.7244C30.351 20.7617 28.3092 23.9584 27.2693 29.3069L27.209 29.6168C25.4266 28.5399 23.4224 27.9286 21.3021 27.9286H20.8724C19.619 27.9286 19 29.127 19 30.0502C19 38.613 24.4324 46 31.6276 46H32.5H33.3724C40.5676 46 46 38.613 46 30.0502C46 29.127 45.381 27.9286 44.1276 27.9286H43.6979C41.5777 27.9286 39.5736 28.5398 37.7912 29.6167L37.7306 29.3061C36.6861 23.9576 34.6444 20.762 33.8965 19.7268Z" fill="#8E9775" stroke="white" stroke-width="2"/>
</svg>
