<svg width="65" height="65" viewBox="0 0 65 65" fill="none" xmlns="http://www.w3.org/2000/svg">
<rect width="65" height="65" rx="25" fill="#8E9775"/>
<path d="M21.797 22.9831L21.7971 22.9831L24.1656 27.7625C24.1656 27.7625 24.1656 27.7625 24.1656 27.7625C24.4476 28.3316 24.9919 28.7243 25.6196 28.815L30.9158 29.5814C30.9158 29.5815 30.9158 29.5815 30.9158 29.5815C31.1913 29.6214 31.2911 29.951 31.1001 30.1364L31.1001 30.1364L27.2676 33.8567L27.2674 33.8568C26.8124 34.2987 26.6033 34.9369 26.7113 35.5633C26.7114 35.5633 26.7114 35.5633 26.7114 35.5633C26.7114 35.5635 26.7114 35.5636 26.7114 35.5637L27.6159 40.8164L27.6159 40.8166C27.6606 41.0755 27.384 41.2899 27.1342 41.1593L22.3974 38.6794L22.3971 38.6792C21.8354 38.3854 21.1646 38.3854 20.6029 38.6792L20.6026 38.6794L15.8656 41.1594L15.8655 41.1594C15.6164 41.2899 15.3393 41.0761 15.3841 40.8166L15.3841 40.8164L16.2886 35.5637C16.3968 34.9372 16.1877 34.2988 15.7326 33.8568L15.7324 33.8567L11.9001 30.1366C11.7083 29.9503 11.8094 29.6211 12.0839 29.5815L12.0842 29.5815L17.3804 28.815C18.0081 28.7243 18.5524 28.3316 18.8344 27.7625C18.8344 27.7625 18.8344 27.7625 18.8344 27.7625L21.2029 22.9831L21.2031 22.9828C21.3236 22.7394 21.6759 22.7387 21.797 22.9831Z" stroke="#FAF2DA" stroke-width="1.6"/>
<path d="M44.797 22.9831L44.7971 22.9831L47.1656 27.7625C47.1656 27.7625 47.1656 27.7625 47.1656 27.7625C47.4476 28.3316 47.9919 28.7243 48.6196 28.815L53.9158 29.5814C53.9158 29.5815 53.9158 29.5815 53.9158 29.5815C54.1913 29.6214 54.2911 29.951 54.1001 30.1364L54.1001 30.1364L50.2676 33.8567L50.2674 33.8568C49.8124 34.2987 49.6033 34.9369 49.7113 35.5633C49.7114 35.5633 49.7114 35.5633 49.7114 35.5633C49.7114 35.5635 49.7114 35.5636 49.7114 35.5637L50.6159 40.8164L50.6159 40.8166C50.6606 41.0755 50.384 41.2899 50.1342 41.1593L45.3974 38.6794L45.3971 38.6792C44.8354 38.3854 44.1646 38.3854 43.6029 38.6792L43.6026 38.6794L38.8656 41.1594L38.8655 41.1594C38.6164 41.2899 38.3393 41.0761 38.3841 40.8166L38.3841 40.8164L39.2886 35.5637C39.3968 34.9372 39.1877 34.2988 38.7326 33.8568L38.7324 33.8567L34.9001 30.1366C34.7083 29.9503 34.8094 29.6211 35.0839 29.5815L35.0842 29.5815L40.3804 28.815C41.0081 28.7243 41.5524 28.3316 41.8344 27.7625C41.8344 27.7625 41.8344 27.7625 41.8344 27.7625L44.2029 22.9831L44.2031 22.9828C44.3236 22.7394 44.6759 22.7387 44.797 22.9831Z" stroke="#FAF2DA" stroke-width="1.6"/>
</svg>
