<svg width="65" height="65" viewBox="0 0 65 65" fill="none" xmlns="http://www.w3.org/2000/svg">
<rect width="65" height="65" rx="25" fill="#A1A4B2"/>
<path d="M43.8966 32.7633L43.6155 33.054V33.0583L38.6464 38.1961C38.5267 38.3198 38.3456 38.3198 38.2259 38.1961C38.0881 38.0536 38.0881 37.8078 38.2259 37.6653L41.2366 34.5523L42.8761 32.8571H40.5178H31.8754C31.7329 32.8571 31.5628 32.7301 31.5628 32.5C31.5628 32.2699 31.7329 32.1429 31.8754 32.1429H40.5178H42.8761L41.2366 30.4477L38.2259 27.3347C38.0881 27.1922 38.0881 26.9464 38.2259 26.8039C38.3456 26.6802 38.5267 26.6802 38.6464 26.8039L43.8966 32.2325C44.0345 32.375 44.0345 32.6208 43.8966 32.7633ZM30.8754 24.3571C30.8754 24.5873 30.7053 24.7143 30.5628 24.7143H27.9377C26.6282 24.7143 25.6251 25.8002 25.6251 27.0714V37.9286C25.6251 39.1998 26.6282 40.2857 27.9377 40.2857H30.5628C30.7053 40.2857 30.8754 40.4127 30.8754 40.6429C30.8754 40.873 30.7053 41 30.5628 41H27.9377C26.3473 41 25 39.6558 25 37.9286V27.0714C25 25.3442 26.3473 24 27.9377 24H30.5628C30.7053 24 30.8754 24.127 30.8754 24.3571Z" fill="#A1A4B2" stroke="white" stroke-width="2"/>
</svg>
