<svg width="46" height="46" viewBox="0 0 46 46" fill="none" xmlns="http://www.w3.org/2000/svg">
<rect width="46" height="46" rx="18" fill="#E28F83"/>
<path d="M22.2173 34.0002C21.6635 34.0002 16.833 33.9366 14.8536 31.6031C14.1454 30.7678 13.873 29.7236 14.0546 28.5886L14.0728 28.4887C14.0909 28.407 14.1 28.3344 14.1182 28.2618L14.4541 26.9361C14.7447 25.9283 15.0443 25.0748 15.3803 24.2757C15.7525 23.4041 16.2338 22.5688 16.8966 21.6517C17.7501 20.4623 18.7761 19.1184 20.1562 18.2922C20.6193 18.0198 21.3457 17.702 22.1992 17.7565C23.0617 17.702 23.779 18.0107 24.2421 18.2922C25.5677 19.0821 26.5938 20.3715 27.5108 21.6517C28.1646 22.5688 28.6458 23.4041 29.0271 24.2757C29.4448 25.2382 29.7989 26.3005 30.1076 27.5081L30.2983 28.2618C30.5798 29.4784 30.3618 30.5952 29.6445 31.4941C27.7287 33.9366 22.7803 34.0002 22.2173 34.0002ZM16.1157 27.7714L15.8615 28.8156C15.7525 29.5057 15.8706 30.0051 16.2428 30.4318C17.4686 31.8755 20.9734 32.1933 22.2173 32.1933H22.2264C23.4976 32.1933 27.0659 31.8664 28.2463 30.3773C28.6185 29.9143 28.7093 29.3695 28.5459 28.6794L28.3734 27.9712C28.0828 26.8544 27.756 25.8829 27.3837 25.0021C27.0568 24.2485 26.6392 23.5221 26.058 22.7049C25.3135 21.6608 24.4328 20.4986 23.3432 19.8539C22.98 19.6451 22.6168 19.5452 22.299 19.5724L22.2173 19.5815L22.1265 19.5724C21.8178 19.5452 21.4455 19.6451 21.1005 19.8539C20.02 20.4986 19.1302 21.6608 18.3857 22.7049C17.8046 23.5221 17.3869 24.2485 17.06 25.0021C16.7513 25.7194 16.4789 26.5003 16.2247 27.3901L16.1157 27.7714Z" fill="#FAF2DA"/>
<path d="M28.5096 18.9823C26.5847 18.9823 25.0229 17.4206 25.0229 15.4957C25.0229 13.5708 26.5847 12 28.5096 12C30.4345 12 31.9962 13.5617 31.9962 15.4866C31.9962 17.4115 30.4345 18.9823 28.5096 18.9823ZM28.5096 13.8159C27.5834 13.8159 26.8389 14.5696 26.8389 15.4866C26.8389 16.4037 27.5925 17.1573 28.5096 17.1573C29.4266 17.1573 30.1802 16.4037 30.1802 15.4866C30.1802 14.5696 29.4266 13.8159 28.5096 13.8159Z" fill="#FAF2DA"/>
</svg>
