<svg width="46" height="46" viewBox="0 0 46 46" fill="none" xmlns="http://www.w3.org/2000/svg">
<rect width="46" height="46" rx="18" fill="#E28F83"/>
<path d="M19.9638 22.4888C19.8643 22.4707 19.7647 22.4616 19.6652 22.4616H15.5204C12.4796 22.4616 10 24.9322 10 27.982V28.4797C10 31.5204 12.4796 34.0001 15.5204 34.0001H16.2534C18.2986 34.0001 20.0996 32.8779 21.0407 31.2037C21.5113 30.3983 21.7738 29.4752 21.7738 28.4797V24.5612C21.7738 23.5023 20.9774 22.6245 19.9638 22.4888ZM19.9638 28.4797C19.9638 30.525 18.2986 32.1901 16.2534 32.1901H15.5204C13.4751 32.1901 11.81 30.525 11.81 28.4797V27.982C11.81 25.9367 13.4751 24.2716 15.5204 24.2716H19.6652C19.8281 24.2716 19.9638 24.3983 19.9638 24.5612V28.4797V28.4797Z" fill="#FAF2DA"/>
<path d="M30.9053 12.0362H30.308V12H25.5931C22.489 12 19.9641 14.5249 19.9641 17.629V27.9005C19.9641 29.1403 20.3623 30.2805 21.041 31.2036C21.5116 30.3982 21.7741 29.4751 21.7741 28.4796V17.629C21.7741 15.5204 23.4845 13.81 25.5931 13.81H29.8555V13.819H30.9053C32.6519 13.819 34.0727 15.2398 34.0727 16.9864V21.1403C34.0275 21.1312 33.9732 21.1312 33.9279 21.1312H30.3714C27.765 21.1312 25.6293 23.2489 25.6293 25.8643V26.2896C25.6293 28.8959 27.765 31.0317 30.3714 31.0317H30.9958C32.7514 31.0317 34.2989 30.0633 35.1044 28.6244C35.3759 28.1629 35.575 27.6561 35.6655 27.1041C35.7831 26.6787 35.8465 26.2443 35.8465 25.7919V16.9864C35.8465 14.2534 33.6293 12.0362 30.9053 12.0362ZM34.1813 26.2896C34.1813 26.5158 34.1541 26.733 34.1179 26.9502C33.8102 28.3891 32.5252 29.4751 30.9958 29.4751H30.3714C28.6157 29.4751 27.1858 28.0452 27.1858 26.2896V25.8643C27.1858 24.1086 28.6157 22.6787 30.3714 22.6787H33.9279C33.9822 22.6787 34.0275 22.6968 34.0727 22.724C34.1361 22.7692 34.1813 22.8416 34.1813 22.9321V26.2896V26.2896Z" fill="#FAF2DA"/>
</svg>
