<svg width="46" height="46" viewBox="0 0 46 46" fill="none" xmlns="http://www.w3.org/2000/svg">
<rect width="46" height="46" rx="18" fill="#E28F83"/>
<path d="M17.3233 16.3113C17.3233 19.2925 19.748 21.7154 22.7311 21.7154C25.7143 21.7154 28.1388 19.2851 28.1388 16.3041C28.1388 13.3229 25.7141 10.9 22.7311 10.9C19.7479 10.9 17.3233 13.323 17.3233 16.3113ZM18.9657 16.3041C18.9657 14.2333 20.6517 12.5413 22.7311 12.5413C24.8104 12.5413 26.4965 14.2333 26.4965 16.3041C26.4965 18.3748 24.8033 20.0669 22.7311 20.0669C20.6588 20.0669 18.9657 18.3748 18.9657 16.3041Z" fill="#FAF2DA" stroke="#FAF2DA" stroke-width="0.2"/>
<path d="M27.7543 34.0001H17.7073C15.1078 34.0001 13 31.6235 13 28.6924C13 25.7612 15.1165 23.3846 17.7073 23.3846H27.7543C30.3539 23.3846 32.4616 25.7711 32.4616 28.6924C32.4616 31.6136 30.3539 34.0001 27.7543 34.0001ZM17.7073 25.3651C16.0826 25.3651 14.7565 26.8604 14.7565 28.6924C14.7565 30.5243 16.0826 32.0196 17.7073 32.0196H27.7543C29.379 32.0196 30.7052 30.5243 30.7052 28.6924C30.7052 26.8604 29.379 25.3651 27.7543 25.3651H17.7073Z" fill="#FAF2DA"/>
</svg>
