<svg width="65" height="65" viewBox="0 0 65 65" fill="none" xmlns="http://www.w3.org/2000/svg">
<rect width="65" height="65" rx="25" fill="#A1A4B2"/>
<path d="M32.5 16C31.5122 16 30.7141 16.8379 30.7141 17.875V18.9238C26.6679 19.5977 23.5705 23.2773 23.5705 27.7188V29.6758C23.5705 32.3359 22.7055 34.9199 21.1261 36.9941L20.2945 38.0898C19.9708 38.5117 19.9095 39.0918 20.1327 39.5781C20.3559 40.0645 20.8247 40.375 21.3382 40.375H43.6618C44.1753 40.375 44.6441 40.0645 44.8673 39.5781C45.0905 39.0918 45.0292 38.5117 44.7055 38.0898L43.8739 37C42.2945 34.9199 41.4295 32.3359 41.4295 29.6758V27.7188C41.4295 23.2773 38.3321 19.5977 34.2859 18.9238V17.875C34.2859 16.8379 33.4878 16 32.5 16ZM32.5 21.625H32.9465C36.1499 21.625 38.7506 24.3555 38.7506 27.7188V29.6758C38.7506 32.4824 39.5264 35.2188 40.9662 37.5625H24.0338C25.4736 35.2188 26.2494 32.4824 26.2494 29.6758V27.7188C26.2494 24.3555 28.8501 21.625 32.0535 21.625H32.5ZM36.0718 42.25H32.5H28.9282C28.9282 43.2461 29.3021 44.2012 29.9718 44.9043C30.6416 45.6074 31.5512 46 32.5 46C33.4488 46 34.3584 45.6074 35.0282 44.9043C35.6979 44.2012 36.0718 43.2461 36.0718 42.25Z" fill="white"/>
</svg>
