<svg width="576" height="512" viewBox="0 0 576 512" fill="none" xmlns="http://www.w3.org/2000/svg">
<rect x="223" y="100" width="65" height="65" rx="25" fill="#A1A4B2"/>
<path d="M256.896 119.727L256.897 119.727L256.891 119.72C256.564 119.275 256.061 119 255.5 119C254.939 119 254.436 119.275 254.109 119.72L254.105 119.724C253.351 120.762 251.309 123.958 250.269 129.307L250.209 129.617C248.427 128.54 246.422 127.929 244.302 127.929H243.872C242.619 127.929 242 129.127 242 130.05C242 138.613 247.432 146 254.628 146H255.5H256.372C263.568 146 269 138.613 269 130.05C269 129.127 268.381 127.929 267.128 127.929H266.698C264.578 127.929 262.574 128.54 260.791 129.617L260.731 129.306C259.686 123.958 257.644 120.762 256.896 119.727Z" fill="#A1A4B2" stroke="white" stroke-width="2"/>
<rect x="223" y="204" width="65" height="65" rx="25" fill="#8E9775"/>
<path d="M256.896 223.727L256.897 223.727L256.891 223.72C256.564 223.275 256.061 223 255.5 223C254.939 223 254.436 223.275 254.109 223.72L254.105 223.724C253.351 224.762 251.309 227.958 250.269 233.307L250.209 233.617C248.427 232.54 246.422 231.929 244.302 231.929H243.872C242.619 231.929 242 233.127 242 234.05C242 242.613 247.432 250 254.628 250H255.5H256.372C263.568 250 269 242.613 269 234.05C269 233.127 268.381 231.929 267.128 231.929H266.698C264.578 231.929 262.574 232.54 260.791 233.617L260.731 233.306C259.686 227.958 257.644 224.762 256.896 223.727Z" fill="#8E9775" stroke="white" stroke-width="2"/>
<rect x="320" y="204" width="65" height="65" rx="25" fill="#A1A4B2"/>
<path d="M353.896 223.727L353.897 223.727L353.891 223.72C353.564 223.275 353.061 223 352.5 223C351.939 223 351.436 223.275 351.109 223.72L351.105 223.724C350.351 224.762 348.309 227.958 347.269 233.307L347.209 233.617C345.427 232.54 343.422 231.929 341.302 231.929H340.872C339.619 231.929 339 233.127 339 234.05C339 242.613 344.432 250 351.628 250H352.5H353.372C360.568 250 366 242.613 366 234.05C366 233.127 365.381 231.929 364.128 231.929H363.698C361.578 231.929 359.574 232.54 357.791 233.617L357.731 233.306C356.686 227.958 354.644 224.762 353.896 223.727Z" fill="#A1A4B2" stroke="white" stroke-width="2"/>
</svg>
