<svg width="46" height="46" viewBox="0 0 46 46" fill="none" xmlns="http://www.w3.org/2000/svg">
<rect width="46" height="46" rx="18" fill="#E28F83"/>
<path d="M23.4761 34C17.1466 34 12 28.8534 12 22.5327C12 18.0306 14.6483 13.9256 18.7532 12.0718C19.0004 11.9571 19.2829 11.9835 19.5124 12.1248C19.742 12.266 19.8832 12.5132 19.8832 12.7869C20.0156 18.9045 25.1092 23.8922 31.2357 23.8922C32.1008 23.8922 32.966 23.7951 33.8134 23.5921C34.0694 23.5303 34.3519 23.6009 34.5461 23.7863C34.7403 23.9717 34.8286 24.2365 34.7845 24.5013C33.8311 30.0098 29.0817 34 23.4761 34ZM18.3737 14.0757C15.4428 15.8501 13.5978 19.0546 13.5978 22.5327C13.5978 27.9706 18.0294 32.4022 23.4761 32.4022C27.8988 32.4022 31.7124 29.5067 32.9395 25.3753C32.3745 25.4547 31.8007 25.49 31.2357 25.49C24.6679 25.49 19.1417 20.4759 18.3737 14.0757Z" fill="#FAF2DA"/>
</svg>
